<svg width="32" height="32" viewBox="0 0 32 32" fill="none" xmlns="http://www.w3.org/2000/svg">
  <!-- Outer circle with gradient -->
  <circle cx="16" cy="16" r="15" fill="url(#gradient1)" stroke="#00D4FF" stroke-width="1.5"/>

  <!-- Gradient definition -->
  <defs>
    <linearGradient id="gradient1" x1="0" y1="0" x2="32" y2="32" gradientUnits="userSpaceOnUse">
      <stop offset="0%" stop-color="#00D4FF"/>
      <stop offset="50%" stop-color="#7B2FBE"/>
      <stop offset="100%" stop-color="#0D1117"/>
    </linearGradient>
    <linearGradient id="gradient2" x1="0" y1="0" x2="1" y2="0" gradientUnits="userSpaceOnUse">
      <stop offset="0%" stop-color="#00D4FF" stop-opacity="0.8"/>
      <stop offset="100%" stop-color="#7B2FBE" stop-opacity="1"/>
    </linearGradient>
  </defs>

  <!-- Bar chart -->
  <rect x="8" y="18" width="2.5" height="6" rx="0.5" fill="#00D4FF" opacity="0.9"/>
  <rect x="11.5" y="15" width="2.5" height="9" rx="0.5" fill="#00D4FF" opacity="0.9"/>
  <rect x="15" y="12" width="2.5" height="12" rx="0.5" fill="#7B2FBE" opacity="0.9"/>

  <!-- Line chart -->
  <path d="M 8 20 L 11 17 L 14 18 L 17 14 L 20 16" stroke="#00D4FF" stroke-width="1.5" fill="none" stroke-linecap="round" stroke-linejoin="round" opacity="0.9"/>
  <circle cx="8" cy="20" r="1" fill="#00D4FF"/>
  <circle cx="11" cy="17" r="1" fill="#00D4FF"/>
  <circle cx="14" cy="18" r="1" fill="#7B2FBE"/>
  <circle cx="17" cy="14" r="1" fill="#7B2FBE"/>
  <circle cx="20" cy="16" r="1" fill="#FF006E"/>

  <!-- Magnifying glass -->
  <circle cx="22" cy="22" r="3.5" fill="none" stroke="#00D4FF" stroke-width="1.5"/>
  <line x1="24.5" y1="24.5" x2="27" y2="27" stroke="#00D4FF" stroke-width="1.5" stroke-linecap="round"/>
</svg>
